<svg xmlns="http://www.w3.org/2000/svg" width="1220" height="710" viewBox="0 0 1220 710" role="img">
<defs>
  <linearGradient id="bg" x1="0" y1="0" x2="1" y2="1"><stop offset="0" stop-color="#071522"/><stop offset="1" stop-color="#0b2034"/></linearGradient>
  <linearGradient id="panel" x1="0" y1="0" x2="0" y2="1"><stop offset="0" stop-color="#102a42"/><stop offset="1" stop-color="#0a1c2d"/></linearGradient>
  <linearGradient id="cyan" x1="0" y1="0" x2="1" y2="0"><stop offset="0" stop-color="#43bfe9"/><stop offset="1" stop-color="#7ee0ff"/></linearGradient>
  <filter id="glow"><feGaussianBlur stdDeviation="4" result="b"/><feMerge><feMergeNode in="b"/><feMergeNode in="SourceGraphic"/></feMerge></filter>
  <marker id="arrow" markerWidth="12" markerHeight="12" refX="10" refY="6" orient="auto"><path d="M0 0 L12 6 L0 12 z" fill="#67d5ff"/></marker>
  <marker id="arrow-muted" markerWidth="12" markerHeight="12" refX="10" refY="6" orient="auto"><path d="M0 0 L12 6 L0 12 z" fill="#4e7895"/></marker>
</defs>
<style>
  .bg{fill:url(#bg)}.panel{fill:url(#panel);stroke:#2f6181;stroke-width:2}.panel2{fill:#0b2135;stroke:#244b66;stroke-width:2}.title{font:700 32px Inter,Segoe UI,Arial,sans-serif;fill:#eef7ff}.h{font:700 22px Inter,Segoe UI,Arial,sans-serif;fill:#edf6ff}.t{font:15px Inter,Segoe UI,Arial,sans-serif;fill:#9eb4c8}.small{font:12px Inter,Segoe UI,Arial,sans-serif;fill:#7896ad;letter-spacing:.04em}.tag{font:700 12px Inter,Segoe UI,Arial,sans-serif;fill:#7fdcff;letter-spacing:.12em}.line{stroke:#67d5ff;stroke-width:4;fill:none;marker-end:url(#arrow)}.mutedline{stroke:#456e8a;stroke-width:3;fill:none;marker-end:url(#arrow-muted)}.dash{stroke:#365d77;stroke-width:2;stroke-dasharray:8 8;fill:none}.good{fill:#63e6a7}.warn{fill:#ffd166}.bad{fill:#ff7f8e}.cyan{fill:#67d5ff}.icon{stroke:#78dfff;stroke-width:2;fill:none;stroke-linecap:round;stroke-linejoin:round}
</style><rect width="100%" height="100%" rx="28" class="bg"/><text x="60" y="58" class="tag" text-anchor="start">FEATURED CASE · INC-WAN-01</text><text x="60" y="100" class="title" text-anchor="start">Evidence-First WAN Fault Isolation</text><rect x="55" y="170" width="170" height="140" rx="17" class="panel"/><text x="73" y="204" class="tag" text-anchor="start">01</text><text x="73" y="238" class="h" text-anchor="start">USER REPORT</text><text x="73" y="270" class="small" text-anchor="start">Internet unavailable</text><path d="M225 240 L243 240" class="line"/><rect x="250" y="170" width="170" height="140" rx="17" class="panel"/><text x="268" y="204" class="tag" text-anchor="start">02</text><text x="268" y="238" class="h" text-anchor="start">LOCAL SERVICES</text><text x="268" y="270" class="small" text-anchor="start">Gateway + AD/DNS reachable</text><circle cx="395" cy="195" r="7" class="good" filter="url(#glow)"/><path d="M420 240 L438 240" class="line"/><rect x="445" y="170" width="170" height="140" rx="17" class="panel"/><text x="463" y="204" class="tag" text-anchor="start">03</text><text x="463" y="238" class="h" text-anchor="start">DISTRICT EDGE</text><text x="463" y="270" class="small" text-anchor="start">WAN up/up · route present</text><circle cx="590" cy="195" r="7" class="good" filter="url(#glow)"/><path d="M615 240 L633 240" class="line"/><rect x="640" y="170" width="170" height="140" rx="17" class="panel"/><text x="658" y="204" class="tag" text-anchor="start">04</text><text x="658" y="238" class="h" text-anchor="start">TRACEROUTE</text><text x="658" y="270" class="small" text-anchor="start">Stops at provider handoff</text><circle cx="785" cy="195" r="7" class="warn" filter="url(#glow)"/><path d="M810 240 L828 240" class="line"/><rect x="835" y="170" width="170" height="140" rx="17" class="panel"/><text x="853" y="204" class="tag" text-anchor="start">05</text><text x="853" y="238" class="h" text-anchor="start">FAULT DOMAIN</text><text x="853" y="270" class="small" text-anchor="start">Upstream / carrier</text><circle cx="980" cy="195" r="7" class="bad" filter="url(#glow)"/><path d="M1005 240 L1023 240" class="line"/><rect x="1030" y="170" width="170" height="140" rx="17" class="panel"/><text x="1048" y="204" class="tag" text-anchor="start">06</text><text x="1048" y="238" class="h" text-anchor="start">HANDOFF</text><text x="1048" y="270" class="small" text-anchor="start">NOC evidence package</text><circle cx="1175" cy="195" r="7" class="good" filter="url(#glow)"/><rect x="55" y="370" width="1115" height="230" rx="20" class="panel2"/><text x="80" y="408" class="tag" text-anchor="start">SYNTHETIC EVIDENCE</text><text x="90" y="450" class="t" text-anchor="start">ping gateway: &lt;1 ms  ✓</text><text x="630" y="450" class="t" text-anchor="start">internal AD/DNS: reachable  ✓</text><text x="90" y="487" class="t" text-anchor="start">edge interface: up/up · errors 0  ✓</text><text x="630" y="487" class="t" text-anchor="start">default route: present  ✓</text><text x="90" y="524" class="t" text-anchor="start">hop 3: 198.51.100.9 provider-handoff</text><text x="630" y="524" class="t" text-anchor="start">hop 4+: timeout  ✕</text><text x="90" y="561" class="t" text-anchor="start">recent local changes: none</text><text x="60" y="662" class="t" text-anchor="start">Decision: local network remains healthy through the provider boundary; escalate with exact circuit, timestamps, source subnets, and path evidence.</text></svg>