<svg xmlns="http://www.w3.org/2000/svg" width="1600" height="900" viewBox="0 0 1600 900">
<defs><linearGradient id="bg" x1="0" x2="1" y1="0" y2="1"><stop stop-color="#041017"/><stop offset=".56" stop-color="#071c27"/><stop offset="1" stop-color="#091420"/></linearGradient><linearGradient id="core" x1="0" x2="1"><stop stop-color="#66dcff"/><stop offset="1" stop-color="#68e7a5"/></linearGradient><radialGradient id="glow"><stop stop-color="#1a839f" stop-opacity=".28"/><stop offset="1" stop-color="#041017" stop-opacity="0"/></radialGradient></defs>
<rect width="100%" height="100%" fill="url(#bg)"/><circle cx="911.9999999999999" cy="477.0" r="432.0" fill="url(#glow)"/>
<g opacity=".18"><path d="M0 40 H1600" stroke="#4aa1bd" stroke-width="1"/><path d="M0 80 H1600" stroke="#4aa1bd" stroke-width="1"/><path d="M0 120 H1600" stroke="#4aa1bd" stroke-width="1"/><path d="M0 160 H1600" stroke="#4aa1bd" stroke-width="1"/><path d="M0 200 H1600" stroke="#4aa1bd" stroke-width="1"/><path d="M0 240 H1600" stroke="#4aa1bd" stroke-width="1"/><path d="M0 280 H1600" stroke="#4aa1bd" stroke-width="1"/><path d="M0 320 H1600" stroke="#4aa1bd" stroke-width="1"/><path d="M0 360 H1600" stroke="#4aa1bd" stroke-width="1"/><path d="M0 400 H1600" stroke="#4aa1bd" stroke-width="1"/><path d="M0 440 H1600" stroke="#4aa1bd" stroke-width="1"/><path d="M0 480 H1600" stroke="#4aa1bd" stroke-width="1"/><path d="M0 520 H1600" stroke="#4aa1bd" stroke-width="1"/><path d="M0 560 H1600" stroke="#4aa1bd" stroke-width="1"/><path d="M0 600 H1600" stroke="#4aa1bd" stroke-width="1"/><path d="M0 640 H1600" stroke="#4aa1bd" stroke-width="1"/><path d="M0 680 H1600" stroke="#4aa1bd" stroke-width="1"/><path d="M0 720 H1600" stroke="#4aa1bd" stroke-width="1"/><path d="M0 760 H1600" stroke="#4aa1bd" stroke-width="1"/><path d="M0 800 H1600" stroke="#4aa1bd" stroke-width="1"/><path d="M0 840 H1600" stroke="#4aa1bd" stroke-width="1"/><path d="M0 880 H1600" stroke="#4aa1bd" stroke-width="1"/><path d="M40 0 V900" stroke="#4aa1bd" stroke-width="1"/><path d="M80 0 V900" stroke="#4aa1bd" stroke-width="1"/><path d="M120 0 V900" stroke="#4aa1bd" stroke-width="1"/><path d="M160 0 V900" stroke="#4aa1bd" stroke-width="1"/><path d="M200 0 V900" stroke="#4aa1bd" stroke-width="1"/><path d="M240 0 V900" stroke="#4aa1bd" stroke-width="1"/><path d="M280 0 V900" stroke="#4aa1bd" stroke-width="1"/><path d="M320 0 V900" stroke="#4aa1bd" stroke-width="1"/><path d="M360 0 V900" stroke="#4aa1bd" stroke-width="1"/><path d="M400 0 V900" stroke="#4aa1bd" stroke-width="1"/><path d="M440 0 V900" stroke="#4aa1bd" stroke-width="1"/><path d="M480 0 V900" stroke="#4aa1bd" stroke-width="1"/><path d="M520 0 V900" stroke="#4aa1bd" stroke-width="1"/><path d="M560 0 V900" stroke="#4aa1bd" stroke-width="1"/><path d="M600 0 V900" stroke="#4aa1bd" stroke-width="1"/><path d="M640 0 V900" stroke="#4aa1bd" stroke-width="1"/><path d="M680 0 V900" stroke="#4aa1bd" stroke-width="1"/><path d="M720 0 V900" stroke="#4aa1bd" stroke-width="1"/><path d="M760 0 V900" stroke="#4aa1bd" stroke-width="1"/><path d="M800 0 V900" stroke="#4aa1bd" stroke-width="1"/><path d="M840 0 V900" stroke="#4aa1bd" stroke-width="1"/><path d="M880 0 V900" stroke="#4aa1bd" stroke-width="1"/><path d="M920 0 V900" stroke="#4aa1bd" stroke-width="1"/><path d="M960 0 V900" stroke="#4aa1bd" stroke-width="1"/><path d="M1000 0 V900" stroke="#4aa1bd" stroke-width="1"/><path d="M1040 0 V900" stroke="#4aa1bd" stroke-width="1"/><path d="M1080 0 V900" stroke="#4aa1bd" stroke-width="1"/><path d="M1120 0 V900" stroke="#4aa1bd" stroke-width="1"/><path d="M1160 0 V900" stroke="#4aa1bd" stroke-width="1"/><path d="M1200 0 V900" stroke="#4aa1bd" stroke-width="1"/><path d="M1240 0 V900" stroke="#4aa1bd" stroke-width="1"/><path d="M1280 0 V900" stroke="#4aa1bd" stroke-width="1"/><path d="M1320 0 V900" stroke="#4aa1bd" stroke-width="1"/><path d="M1360 0 V900" stroke="#4aa1bd" stroke-width="1"/><path d="M1400 0 V900" stroke="#4aa1bd" stroke-width="1"/><path d="M1440 0 V900" stroke="#4aa1bd" stroke-width="1"/><path d="M1480 0 V900" stroke="#4aa1bd" stroke-width="1"/><path d="M1520 0 V900" stroke="#4aa1bd" stroke-width="1"/><path d="M1560 0 V900" stroke="#4aa1bd" stroke-width="1"/></g>
<rect x="60" y="35" width="48" height="48" rx="10" fill="#0a2c3a" stroke="#2f7891"/><text x="84" y="65" text-anchor="middle" fill="#effcff" font-family="Arial,sans-serif" font-size="16" font-weight="900">ML</text><text x="124" y="54" fill="#ecfaff" font-family="Arial,sans-serif" font-size="16" font-weight="800">MARC LAVOIE</text><text x="124" y="76" fill="#6c93a4" font-family="monospace" font-size="10">CYBERSECURITY PORTFOLIO · OPERATIONS ENGINEERING</text>
<text x="60" y="112" fill="#66dcff" font-family="monospace" font-size="11" font-weight="800" letter-spacing="2">REGIONAL DIGITAL TWIN / V6</text>
<text x="60" y="164" fill="#f2fbff" font-family="Arial,sans-serif" font-size="52" font-weight="800">Regional K–12</text><text x="60" y="212" fill="#f2fbff" font-family="Arial,sans-serif" font-size="52" font-weight="800">Network Operations</text>
<text x="60" y="239" fill="#8eaebb" font-family="Arial,sans-serif" font-size="17">Evidence-first troubleshooting · raw artifacts · configuration assurance · capacity · change control</text>
<rect x="950" y="88" width="140" height="64" rx="10" fill="#071923" stroke="#1d4659"/><text x="962" y="116" fill="#eaf9ff" font-family="monospace" font-size="19" font-weight="800">35</text><text x="962" y="137" fill="#648a9b" font-family="monospace" font-size="10" font-weight="700">DISTRICTS</text><rect x="1100" y="88" width="140" height="64" rx="10" fill="#071923" stroke="#1d4659"/><text x="1112" y="116" fill="#eaf9ff" font-family="monospace" font-size="19" font-weight="800">70</text><text x="1112" y="137" fill="#648a9b" font-family="monospace" font-size="10" font-weight="700">SITES</text><rect x="1250" y="88" width="140" height="64" rx="10" fill="#071923" stroke="#1d4659"/><text x="1262" y="116" fill="#eaf9ff" font-family="monospace" font-size="19" font-weight="800">6</text><text x="1262" y="137" fill="#648a9b" font-family="monospace" font-size="10" font-weight="700">CASES</text><rect x="1400" y="88" width="140" height="64" rx="10" fill="#071923" stroke="#1d4659"/><text x="1412" y="116" fill="#eaf9ff" font-family="monospace" font-size="19" font-weight="800">23/23</text><text x="1412" y="137" fill="#648a9b" font-family="monospace" font-size="10" font-weight="700">TESTS</text><g><line x1="800.0" y1="295.0" x2="90.0" y2="350.0" stroke="#173848" stroke-width="1" opacity=".72"/><circle cx="90.0" cy="350.0" r="10" fill="#0b3140" stroke="#58c9ee" stroke-width="2"/><text x="90.0" y="377.0" text-anchor="middle" fill="#7395a5" font-family="monospace" font-size="11">D01</text><line x1="800.0" y1="295.0" x2="326.7" y2="350.0" stroke="#173848" stroke-width="1" opacity=".72"/><circle cx="326.7" cy="350.0" r="10" fill="#0b3140" stroke="#58c9ee" stroke-width="2"/><text x="326.7" y="377.0" text-anchor="middle" fill="#7395a5" font-family="monospace" font-size="11">D02</text><line x1="800.0" y1="295.0" x2="563.3" y2="350.0" stroke="#173848" stroke-width="1" opacity=".72"/><circle cx="563.3" cy="350.0" r="10" fill="#0b3140" stroke="#58c9ee" stroke-width="2"/><text x="563.3" y="377.0" text-anchor="middle" fill="#7395a5" font-family="monospace" font-size="11">D03</text><line x1="800.0" y1="295.0" x2="800.0" y2="350.0" stroke="#173848" stroke-width="1" opacity=".72"/><circle cx="800.0" cy="350.0" r="10" fill="#0b3140" stroke="#58c9ee" stroke-width="2"/><text x="800.0" y="377.0" text-anchor="middle" fill="#7395a5" font-family="monospace" font-size="11">D04</text><line x1="800.0" y1="295.0" x2="1036.7" y2="350.0" stroke="#173848" stroke-width="1" opacity=".72"/><circle cx="1036.7" cy="350.0" r="10" fill="#0b3140" stroke="#58c9ee" stroke-width="2"/><text x="1036.7" y="377.0" text-anchor="middle" fill="#7395a5" font-family="monospace" font-size="11">D05</text><line x1="800.0" y1="295.0" x2="1273.3" y2="350.0" stroke="#173848" stroke-width="1" opacity=".72"/><circle cx="1273.3" cy="350.0" r="10" fill="#522733" stroke="#ff7d85" stroke-width="2"/><text x="1273.3" y="377.0" text-anchor="middle" fill="#7395a5" font-family="monospace" font-size="11">D06</text><line x1="800.0" y1="295.0" x2="1510.0" y2="350.0" stroke="#173848" stroke-width="1" opacity=".72"/><circle cx="1510.0" cy="350.0" r="10" fill="#0b3140" stroke="#58c9ee" stroke-width="2"/><text x="1510.0" y="377.0" text-anchor="middle" fill="#7395a5" font-family="monospace" font-size="11">D07</text><line x1="800.0" y1="295.0" x2="90.0" y2="460.5" stroke="#173848" stroke-width="1" opacity=".72"/><circle cx="90.0" cy="460.5" r="10" fill="#0b3140" stroke="#58c9ee" stroke-width="2"/><text x="90.0" y="487.5" text-anchor="middle" fill="#7395a5" font-family="monospace" font-size="11">D08</text><line x1="800.0" y1="295.0" x2="326.7" y2="460.5" stroke="#173848" stroke-width="1" opacity=".72"/><circle cx="326.7" cy="460.5" r="10" fill="#0b3140" stroke="#58c9ee" stroke-width="2"/><text x="326.7" y="487.5" text-anchor="middle" fill="#7395a5" font-family="monospace" font-size="11">D09</text><line x1="800.0" y1="295.0" x2="563.3" y2="460.5" stroke="#173848" stroke-width="1" opacity=".72"/><circle cx="563.3" cy="460.5" r="10" fill="#0b3140" stroke="#58c9ee" stroke-width="2"/><text x="563.3" y="487.5" text-anchor="middle" fill="#7395a5" font-family="monospace" font-size="11">D10</text><line x1="800.0" y1="295.0" x2="800.0" y2="460.5" stroke="#173848" stroke-width="1" opacity=".72"/><circle cx="800.0" cy="460.5" r="10" fill="#0b3140" stroke="#58c9ee" stroke-width="2"/><text x="800.0" y="487.5" text-anchor="middle" fill="#7395a5" font-family="monospace" font-size="11">D11</text><line x1="800.0" y1="295.0" x2="1036.7" y2="460.5" stroke="#173848" stroke-width="1" opacity=".72"/><circle cx="1036.7" cy="460.5" r="10" fill="#522733" stroke="#ff7d85" stroke-width="2"/><text x="1036.7" y="487.5" text-anchor="middle" fill="#7395a5" font-family="monospace" font-size="11">D12</text><line x1="800.0" y1="295.0" x2="1273.3" y2="460.5" stroke="#173848" stroke-width="1" opacity=".72"/><circle cx="1273.3" cy="460.5" r="10" fill="#0b3140" stroke="#58c9ee" stroke-width="2"/><text x="1273.3" y="487.5" text-anchor="middle" fill="#7395a5" font-family="monospace" font-size="11">D13</text><line x1="800.0" y1="295.0" x2="1510.0" y2="460.5" stroke="#173848" stroke-width="1" opacity=".72"/><circle cx="1510.0" cy="460.5" r="10" fill="#0b3140" stroke="#58c9ee" stroke-width="2"/><text x="1510.0" y="487.5" text-anchor="middle" fill="#7395a5" font-family="monospace" font-size="11">D14</text><line x1="800.0" y1="295.0" x2="90.0" y2="571.0" stroke="#173848" stroke-width="1" opacity=".72"/><circle cx="90.0" cy="571.0" r="10" fill="#0b3140" stroke="#58c9ee" stroke-width="2"/><text x="90.0" y="598.0" text-anchor="middle" fill="#7395a5" font-family="monospace" font-size="11">D15</text><line x1="800.0" y1="295.0" x2="326.7" y2="571.0" stroke="#173848" stroke-width="1" opacity=".72"/><circle cx="326.7" cy="571.0" r="10" fill="#0b3140" stroke="#58c9ee" stroke-width="2"/><text x="326.7" y="598.0" text-anchor="middle" fill="#7395a5" font-family="monospace" font-size="11">D16</text><line x1="800.0" y1="295.0" x2="563.3" y2="571.0" stroke="#173848" stroke-width="1" opacity=".72"/><circle cx="563.3" cy="571.0" r="10" fill="#0b3140" stroke="#58c9ee" stroke-width="2"/><text x="563.3" y="598.0" text-anchor="middle" fill="#7395a5" font-family="monospace" font-size="11">D17</text><line x1="800.0" y1="295.0" x2="800.0" y2="571.0" stroke="#173848" stroke-width="1" opacity=".72"/><circle cx="800.0" cy="571.0" r="10" fill="#0b3140" stroke="#58c9ee" stroke-width="2"/><text x="800.0" y="598.0" text-anchor="middle" fill="#7395a5" font-family="monospace" font-size="11">D18</text><line x1="800.0" y1="295.0" x2="1036.7" y2="571.0" stroke="#173848" stroke-width="1" opacity=".72"/><circle cx="1036.7" cy="571.0" r="10" fill="#522733" stroke="#ff7d85" stroke-width="2"/><text x="1036.7" y="598.0" text-anchor="middle" fill="#7395a5" font-family="monospace" font-size="11">D19</text><line x1="800.0" y1="295.0" x2="1273.3" y2="571.0" stroke="#173848" stroke-width="1" opacity=".72"/><circle cx="1273.3" cy="571.0" r="10" fill="#0b3140" stroke="#58c9ee" stroke-width="2"/><text x="1273.3" y="598.0" text-anchor="middle" fill="#7395a5" font-family="monospace" font-size="11">D20</text><line x1="800.0" y1="295.0" x2="1510.0" y2="571.0" stroke="#173848" stroke-width="1" opacity=".72"/><circle cx="1510.0" cy="571.0" r="10" fill="#0b3140" stroke="#58c9ee" stroke-width="2"/><text x="1510.0" y="598.0" text-anchor="middle" fill="#7395a5" font-family="monospace" font-size="11">D21</text><line x1="800.0" y1="295.0" x2="90.0" y2="681.5" stroke="#173848" stroke-width="1" opacity=".72"/><circle cx="90.0" cy="681.5" r="10" fill="#0b3140" stroke="#58c9ee" stroke-width="2"/><text x="90.0" y="708.5" text-anchor="middle" fill="#7395a5" font-family="monospace" font-size="11">D22</text><line x1="800.0" y1="295.0" x2="326.7" y2="681.5" stroke="#173848" stroke-width="1" opacity=".72"/><circle cx="326.7" cy="681.5" r="10" fill="#0b3140" stroke="#58c9ee" stroke-width="2"/><text x="326.7" y="708.5" text-anchor="middle" fill="#7395a5" font-family="monospace" font-size="11">D23</text><line x1="800.0" y1="295.0" x2="563.3" y2="681.5" stroke="#173848" stroke-width="1" opacity=".72"/><circle cx="563.3" cy="681.5" r="10" fill="#0b3140" stroke="#58c9ee" stroke-width="2"/><text x="563.3" y="708.5" text-anchor="middle" fill="#7395a5" font-family="monospace" font-size="11">D24</text><line x1="800.0" y1="295.0" x2="800.0" y2="681.5" stroke="#173848" stroke-width="1" opacity=".72"/><circle cx="800.0" cy="681.5" r="10" fill="#0b3140" stroke="#58c9ee" stroke-width="2"/><text x="800.0" y="708.5" text-anchor="middle" fill="#7395a5" font-family="monospace" font-size="11">D25</text><line x1="800.0" y1="295.0" x2="1036.7" y2="681.5" stroke="#173848" stroke-width="1" opacity=".72"/><circle cx="1036.7" cy="681.5" r="10" fill="#0b3140" stroke="#58c9ee" stroke-width="2"/><text x="1036.7" y="708.5" text-anchor="middle" fill="#7395a5" font-family="monospace" font-size="11">D26</text><line x1="800.0" y1="295.0" x2="1273.3" y2="681.5" stroke="#173848" stroke-width="1" opacity=".72"/><circle cx="1273.3" cy="681.5" r="10" fill="#0b3140" stroke="#58c9ee" stroke-width="2"/><text x="1273.3" y="708.5" text-anchor="middle" fill="#7395a5" font-family="monospace" font-size="11">D27</text><line x1="800.0" y1="295.0" x2="1510.0" y2="681.5" stroke="#173848" stroke-width="1" opacity=".72"/><circle cx="1510.0" cy="681.5" r="10" fill="#0b3140" stroke="#58c9ee" stroke-width="2"/><text x="1510.0" y="708.5" text-anchor="middle" fill="#7395a5" font-family="monospace" font-size="11">D28</text><line x1="800.0" y1="295.0" x2="90.0" y2="792.0" stroke="#173848" stroke-width="1" opacity=".72"/><circle cx="90.0" cy="792.0" r="10" fill="#0b3140" stroke="#58c9ee" stroke-width="2"/><text x="90.0" y="819.0" text-anchor="middle" fill="#7395a5" font-family="monospace" font-size="11">D29</text><line x1="800.0" y1="295.0" x2="326.7" y2="792.0" stroke="#173848" stroke-width="1" opacity=".72"/><circle cx="326.7" cy="792.0" r="10" fill="#0b3140" stroke="#58c9ee" stroke-width="2"/><text x="326.7" y="819.0" text-anchor="middle" fill="#7395a5" font-family="monospace" font-size="11">D30</text><line x1="800.0" y1="295.0" x2="563.3" y2="792.0" stroke="#173848" stroke-width="1" opacity=".72"/><circle cx="563.3" cy="792.0" r="10" fill="#0b3140" stroke="#58c9ee" stroke-width="2"/><text x="563.3" y="819.0" text-anchor="middle" fill="#7395a5" font-family="monospace" font-size="11">D31</text><line x1="800.0" y1="295.0" x2="800.0" y2="792.0" stroke="#173848" stroke-width="1" opacity=".72"/><circle cx="800.0" cy="792.0" r="10" fill="#0b3140" stroke="#58c9ee" stroke-width="2"/><text x="800.0" y="819.0" text-anchor="middle" fill="#7395a5" font-family="monospace" font-size="11">D32</text><line x1="800.0" y1="295.0" x2="1036.7" y2="792.0" stroke="#173848" stroke-width="1" opacity=".72"/><circle cx="1036.7" cy="792.0" r="10" fill="#0b3140" stroke="#58c9ee" stroke-width="2"/><text x="1036.7" y="819.0" text-anchor="middle" fill="#7395a5" font-family="monospace" font-size="11">D33</text><line x1="800.0" y1="295.0" x2="1273.3" y2="792.0" stroke="#173848" stroke-width="1" opacity=".72"/><circle cx="1273.3" cy="792.0" r="10" fill="#0b3140" stroke="#58c9ee" stroke-width="2"/><text x="1273.3" y="819.0" text-anchor="middle" fill="#7395a5" font-family="monospace" font-size="11">D34</text><line x1="800.0" y1="295.0" x2="1510.0" y2="792.0" stroke="#173848" stroke-width="1" opacity=".72"/><circle cx="1510.0" cy="792.0" r="10" fill="#0b3140" stroke="#58c9ee" stroke-width="2"/><text x="1510.0" y="819.0" text-anchor="middle" fill="#7395a5" font-family="monospace" font-size="11">D35</text></g>
<circle cx="800.0" cy="295" r="34" fill="#092d3b" stroke="url(#core)" stroke-width="3"/><text x="800.0" y="291" text-anchor="middle" fill="#effcff" font-family="monospace" font-size="11" font-weight="800">REGIONAL</text><text x="800.0" y="306" text-anchor="middle" fill="#66dcff" font-family="monospace" font-size="11" font-weight="800">CORE</text>
<rect x="60" y="834" width="1480" height="38" rx="10" fill="#061923" stroke="#21495c"/><circle cx="80" cy="853" r="5" fill="#68e7a5"/><text x="95" y="857" fill="#92afbb" font-family="monospace" font-size="10">STATIC SIMULATION · 6 EVIDENCE-RICH CASES · GUIDED OPERATOR MISSION · SAFE VIRTUAL TERMINAL</text>
</svg>